<?xml version="1.0" encoding="UTF-8"?>
<svg id="Layer_2" data-name="Layer 2" xmlns="http://www.w3.org/2000/svg" viewBox="0 0 750 750">
  <defs>
    <style>
      .cls-1 {
        fill: #fff;
      }
    </style>
  </defs>
  <g id="Layer_1-2" data-name="Layer 1">
    <rect width="750" height="750" rx="92.86" ry="92.86"/>
    <g>
      <path class="cls-1" d="M595.66,413.37h-81.9c-103.08,0-186.94-83.86-186.94-186.94v-81.9h45.59v81.9c0,77.94,63.41,141.35,141.35,141.35h81.9v45.59Z"/>
      <path class="cls-1" d="M595.66,338.95h-73.76c-68.24,0-123.75-55.52-123.75-123.75v-70.67h45.59v70.67c0,43.1,35.07,78.17,78.17,78.17h73.76v45.59Z"/>
      <path class="cls-1" d="M423.18,605.47h-45.59v-81.9c0-77.94-63.41-141.35-141.35-141.35h-81.9v-45.59h81.9c103.08,0,186.94,83.86,186.94,186.94v81.9Z"/>
      <path class="cls-1" d="M348.76,604.94h-45.59v-68.35c0-43.1-35.07-78.17-78.17-78.17h-70.67v-45.59h70.67c68.24,0,123.75,55.52,123.75,123.75v68.35Z"/>
    </g>
  </g>
</svg>