<?xml version="1.0" encoding="UTF-8"?>
<svg id="Layer_2" data-name="Layer 2" xmlns="http://www.w3.org/2000/svg" viewBox="0 0 750 750">
  <defs>
    <style>
      .cls-1 {
        fill: #fff;
      }
    </style>
  </defs>
  <path class="cls-1" d="M657.14,0H92.86C41.57,0,0,41.57,0,92.86v564.28c0,51.29,41.57,92.86,92.86,92.86h564.28c51.29,0,92.86-41.57,92.86-92.86V92.86c0-51.29-41.57-92.86-92.86-92.86ZM280.16,678.59v-90.24c0-56.91-46.3-103.21-103.2-103.21h-93.31v-60.19h93.31c90.09,0,163.38,73.3,163.38,163.38v90.25h.02s-60.2.01-60.2.01ZM438.61,679.29h-60.19v-108.13c0-102.91-83.72-186.63-186.62-186.63h-108.14v-60.19h108.14c136.09,0,246.81,110.72,246.81,246.82v108.13ZM666.34,425.66h-108.14c-136.09,0-246.81-110.72-246.81-246.82v-108.13h60.19v108.13c0,102.91,83.72,186.63,186.62,186.63h108.14v60.19ZM666.35,327.42v-.02h-97.4c-90.1,0-163.39-73.3-163.39-163.38v-93.31h60.2v93.31c0,56.9,46.3,103.2,103.2,103.2h97.39v60.2Z"/>
  <path d="M666.35,267.22v60.2-.02h-97.4c-90.1,0-163.39-73.3-163.39-163.38v-93.31h60.2v93.31c0,56.9,46.3,103.2,103.2,103.2h97.39Z"/>
  <path d="M666.34,365.47v60.19h-108.14c-136.09,0-246.81-110.72-246.81-246.82v-108.13h60.19v108.13c0,102.91,83.72,186.63,186.62,186.63h108.14Z"/>
  <path d="M280.16,678.59v-90.24c0-56.91-46.3-103.21-103.2-103.21h-93.31v-60.19h93.31c90.09,0,163.38,73.3,163.38,163.38v90.25h.02s-60.2.01-60.2.01Z"/>
  <path d="M438.61,571.16v108.13h-60.19v-108.13c0-102.91-83.72-186.63-186.62-186.63h-108.14v-60.19h108.14c136.09,0,246.81,110.72,246.81,246.82Z"/>
</svg>