<?xml version="1.0" encoding="UTF-8"?>
<svg id="Layer_2" data-name="Layer 2" xmlns="http://www.w3.org/2000/svg" viewBox="0 0 316.4 162.57">
  <defs>
    <style>
      .cls-1 {
        fill: #fff;
      }
    </style>
  </defs>
  <g id="Layer_1-2" data-name="Layer 1">
    <g>
      <path class="cls-1" d="M15.32,152.58L.12,95.16c-.61-2.32,1.14-4.6,3.54-4.6h3.52c1.67,0,3.12,1.12,3.54,2.74l14.28,54.62c.46,1.76,2.05,2.99,3.87,2.99h0c1.82,0,3.41-1.23,3.87-2.99l14.25-54.53c.44-1.67,1.94-2.83,3.67-2.83h3.25c2.49,0,4.3,2.36,3.67,4.76l-15.16,57.25c-1.24,4.67-5.47,7.93-10.3,7.93h-6.5c-4.83,0-9.06-3.25-10.3-7.93Z"/>
      <path class="cls-1" d="M103.82,162.57c-21.67,0-38.4-16.59-38.4-37.17s16.73-36.75,38.4-36.75,38.4,16.46,38.4,36.75-16.59,37.17-38.4,37.17ZM103.82,152.42c15.91,0,27.43-11.79,27.43-27.02s-11.52-26.61-27.43-26.61-27.43,11.66-27.43,26.61,11.52,27.02,27.43,27.02Z"/>
      <path class="cls-1" d="M181.31,128.14h-13.03v29.42c0,1.63-1.32,2.95-2.95,2.95h-4.81c-1.63,0-2.95-1.32-2.95-2.95V60.6c0-1.63,1.32-2.95,2.95-2.95h4.81c1.63,0,2.95,1.32,2.95,2.95v57.95h12.34l19.87-26.84c.53-.71,1.36-1.13,2.25-1.13h5.99c2.31,0,3.63,2.64,2.23,4.49l-20.88,27.6,22.37,33.02c1.39,2.06-.08,4.83-2.56,4.83h-5.79c-1.05,0-2.02-.53-2.59-1.4l-20.2-30.96Z"/>
      <path class="cls-1" d="M276.9,156.21c0-2.23-2.65-3.39-4.28-1.87-5.57,5.2-12.59,8.23-20.54,8.23-19.2,0-35.25-16.18-35.25-37.17s16.05-36.75,35.25-36.75c7.96,0,14.99,2.95,20.56,8.06,1.63,1.5,4.26.32,4.26-1.89h0c0-2.35,1.9-4.25,4.25-4.25h2.15c2.37,0,4.3,1.92,4.3,4.3v61.35c0,2.37-1.92,4.3-4.3,4.3h-2.1c-2.37,0-4.3-1.92-4.3-4.3h0ZM252.08,152.42c8.74,0,16.32-4.28,21.51-10.62,2.16-2.63,3.31-5.95,3.31-9.35v-14.08c0-3.44-1.15-6.8-3.37-9.42-5.12-6.05-12.81-10.15-21.45-10.15-13.44,0-24.27,11.11-24.27,26.61s10.83,27.02,24.27,27.02Z"/>
      <path class="cls-1" d="M305.7,156.75V61.41c0-2.08,1.68-3.76,3.76-3.76h3.18c2.08,0,3.76,1.68,3.76,3.76v95.34c0,2.08-1.68,3.76-3.76,3.76h-3.18c-2.08,0-3.76-1.68-3.76-3.76Z"/>
    </g>
    <path class="cls-1" d="M162.77,46.61c-6.29,0-11.41-5.12-11.41-11.41s5.12-11.41,11.41-11.41,11.41,5.12,11.41,11.41-5.12,11.41-11.41,11.41ZM162.77,30.79c-2.43,0-4.41,1.98-4.41,4.41s1.98,4.41,4.41,4.41,4.41-1.98,4.41-4.41-1.98-4.41-4.41-4.41Z"/>
    <path class="cls-1" d="M140.12,58.04c-1.31,1.27-3.44,1.12-4.53-.34-2.96-3.97-7.85-12.13-7.61-22.58,0-10.45,4.69-18.43,7.58-22.35,1.1-1.49,3.24-1.67,4.57-.38l1.4,1.36c1.08,1.05,1.23,2.72.35,3.94-2.21,3.06-5.91,9.4-5.91,17.52-.18,7.99,3.63,14.42,5.9,17.52.89,1.22.73,2.9-.35,3.95l-1.4,1.36Z"/>
    <path class="cls-1" d="M128.25,69.51c-1.28,1.27-3.37,1.16-4.5-.24-4.13-5.07-12.5-17.43-12.5-34.07S119.61,6.21,123.74,1.13c1.14-1.4,3.23-1.51,4.51-.24l2.09,2.09c1.09,1.09,1.2,2.82.23,4.03-3.35,4.21-10.33,14.61-10.33,28.18s6.98,23.97,10.34,28.19c.96,1.21.86,2.94-.24,4.04l-2.09,2.09Z"/>
    <path class="cls-1" d="M185.09,57.53l-.89-.81c-1.13-1.03-1.33-2.73-.45-3.97,2.24-3.18,6-9.7,6-17.54,0-7.35-3.88-14.21-6.14-17.58-.86-1.28-.6-3.01.59-4l1.49-1.25c1.37-1.15,3.44-.87,4.45.61,2.81,4.15,7.62,12.63,7.62,22.22,0,10.16-4.72,18.32-7.58,22.33-1.06,1.49-3.19,1.73-4.54.49"/>
    <path class="cls-1" d="M196.58,68.61l-1.19-1.18c-1.1-1.09-1.2-2.83-.24-4.04,3.36-4.22,10.33-14.61,10.33-28.19s-6.98-23.98-10.34-28.19c-.96-1.21-.86-2.94.24-4.04l2.09-2.09c1.28-1.27,3.37-1.16,4.51.24,4.12,5.07,12.5,17.43,12.5,34.07s-8.37,28.99-12.5,34.07c-1.14,1.4-3.23,1.51-4.51.24"/>
  </g>
</svg>