<?xml version="1.0" encoding="UTF-8"?>
<svg id="Layer_2" data-name="Layer 2" xmlns="http://www.w3.org/2000/svg" viewBox="0 0 845.76 201.68">
  <defs>
    <style>
      .cls-1 {
        fill: #1c1c1c;
      }
    </style>
  </defs>
  <g id="Layer_1-2" data-name="Layer 1">
    <path class="cls-1" d="M148.44,0H53.24C23.84,0,0,23.84,0,53.24v95.2c0,29.4,23.84,53.24,53.24,53.24h95.2c29.4,0,53.24-23.84,53.24-53.24V53.24c0-29.4-23.84-53.24-53.24-53.24ZM93.78,162.67h-12.26v-18.38c0-11.59-9.43-21.02-21.02-21.02h-19v-12.26h19c18.35,0,33.28,14.93,33.28,33.28v18.38ZM113.79,162.81h-12.26v-22.02c0-20.96-17.05-38.01-38.01-38.01h-22.02v-12.26h22.02c27.72,0,50.27,22.55,50.27,50.27v22.02ZM160.17,111.16h-22.03c-27.72,0-50.27-22.55-50.27-50.27v-22.03h12.26v22.03c0,20.96,17.05,38.01,38.01,38.01h22.03v12.26ZM160.17,91.15h-19.83c-18.35,0-33.28-14.93-33.28-33.28v-19h12.26v19c0,11.59,9.43,21.02,21.02,21.02h19.83v12.26Z"/>
    <g>
      <path class="cls-1" d="M779.23,109.59v-11.4c0-1.3-2.01-4.86-3.08-5.81-1.18-1.05-5.3-2.89-6.78-2.89h-86.25l-.58-.58v-19.13l88.01-.02c18.39.89,32.25,7.51,33.45,27.63.79,13.25.85,32.41,0,45.63-1.22,19.08-16.18,24.48-33.07,25.31-21.62,1.06-44.08-.84-65.79,0-24.8-1.44-26.01-17-24.56-38.09.79-11.56,9.55-20.66,21.48-20.66h77.16ZM779.23,125.82h-64.01c-.74,0-3.68.61-4.53.88-5.6,1.78-5.82,8.7-5.33,13.6.44,4.41,3.31,7.21,7.64,7.83,16.98-.56,34.87,1.09,51.75.12,4.3-.25,10.64-1.1,13.1-5.08.36-.58,1.39-3.49,1.39-4.02v-13.33Z"/>
      <path class="cls-1" d="M439.94,69.91c21-1.31,43.4.44,64.48.28,17.97,1.91,30.33,10.52,31.54,29.54.72,11.27.76,28.19,0,39.45-1.44,21.4-17.79,28.29-36.94,29.18-17.66.82-40.03.88-57.67,0-19.3-.97-35.07-8.35-36.53-29.58-.76-11.06-.71-27.56-.02-38.65,1.3-21.06,15.65-28.99,35.13-30.2ZM507.95,93.11c-2.35-2.35-6.87-3.4-10.1-3.63-17.52-1.25-36.51.98-54.18,0-7.95.72-13.33,3.17-14.1,11.81-.98,10.96.71,23.27,0,34.38,1.02,8.69,6.38,11.26,14.49,11.8,17.21,1.15,35.68-.9,53.02,0,5.43-.72,11.35-1.62,13.41-7.47,1.95-5.53,1.55-29.54,1.08-36.4-.24-3.42-1.1-7.97-3.62-10.49Z"/>
      <path class="cls-1" d="M576.17,32.7v74.58h31.52c11.4-11.93,22.15-24.5,33.68-36.31.44-.45.49-1.17.55-1.17h27.08l-40.6,44.63,46.01,53.9h-27.27l-36.36-42.12h-34.62v42.12h-23.21V32.7h23.21Z"/>
      <path class="cls-1" d="M405.98,69.79l-53.95,90.42c-8.33,9.94-26.3,8.82-38.32,8.13-7.75-.45-13.77-2.67-18.51-8.94l-53.22-89.61h28.04l40.26,72.22c3.42,6.16,10.76,5.89,17,5.46,5.22-.36,7.05-1.83,9.86-6l40.8-71.69h28.04Z"/>
      <polygon class="cls-1" points="821 168.32 821 32.7 845.18 32.7 845.76 33.28 845.76 167.75 845.18 168.32 821 168.32"/>
    </g>
  </g>
</svg>